<mxfile host="app.diagrams.net" modified="2023-04-04T07:32:39.215Z" agent="Mozilla/5.0 (Windows NT 10.0; Win64; x64) AppleWebKit/537.36 (KHTML, like Gecko) Chrome/111.0.0.0 Safari/537.36" etag="qrqklaVCUwYUzI9qs2bC" version="21.1.4" type="github">
  <diagram name="Page-1" id="UayGCfJ97A4wb-J5shJN">
    <mxGraphModel dx="662" dy="398" grid="1" gridSize="10" guides="1" tooltips="1" connect="1" arrows="1" fold="1" page="1" pageScale="1" pageWidth="850" pageHeight="1100" math="0" shadow="0">
      <root>
        <mxCell id="0" />
        <mxCell id="1" parent="0" />
        <mxCell id="elFiDxT0RZDuDSS1idMg-5" value="" style="edgeStyle=orthogonalEdgeStyle;orthogonalLoop=1;jettySize=auto;html=1;strokeWidth=1.3;exitX=0.5;exitY=0;exitDx=0;exitDy=0;entryX=0;entryY=0.5;entryDx=0;entryDy=0;elbow=vertical;strokeColor=#535353;dashed=1;rounded=1;" edge="1" parent="1" source="elFiDxT0RZDuDSS1idMg-3" target="elFiDxT0RZDuDSS1idMg-4">
          <mxGeometry relative="1" as="geometry" />
        </mxCell>
        <mxCell id="elFiDxT0RZDuDSS1idMg-3" value="Communication" style="rounded=1;whiteSpace=wrap;html=1;absoluteArcSize=1;arcSize=14;strokeWidth=1;strokeColor=#535353;fillColor=#ECECEC;fontFamily=Ubuntu;" vertex="1" parent="1">
          <mxGeometry x="160" y="200" width="100" height="50" as="geometry" />
        </mxCell>
        <mxCell id="elFiDxT0RZDuDSS1idMg-8" value="" style="edgeStyle=orthogonalEdgeStyle;rounded=0;orthogonalLoop=1;jettySize=auto;html=1;entryX=0;entryY=0.5;entryDx=0;entryDy=0;endArrow=none;endFill=0;strokeWidth=1.3;strokeColor=#535353;dashed=1;" edge="1" parent="1" source="elFiDxT0RZDuDSS1idMg-4" target="elFiDxT0RZDuDSS1idMg-6">
          <mxGeometry relative="1" as="geometry" />
        </mxCell>
        <mxCell id="elFiDxT0RZDuDSS1idMg-4" value="Quick plan" style="rounded=1;whiteSpace=wrap;html=1;arcSize=14;strokeWidth=1;strokeColor=#535353;fillColor=#ECECEC;" vertex="1" parent="1">
          <mxGeometry x="260" y="100" width="100" height="50" as="geometry" />
        </mxCell>
        <mxCell id="elFiDxT0RZDuDSS1idMg-15" value="" style="edgeStyle=orthogonalEdgeStyle;orthogonalLoop=1;jettySize=auto;html=1;strokeWidth=1.3;strokeColor=#535353;exitX=1;exitY=0.5;exitDx=0;exitDy=0;entryX=0.5;entryY=0;entryDx=0;entryDy=0;dashed=1;rounded=1;jumpStyle=none;" edge="1" parent="1" source="elFiDxT0RZDuDSS1idMg-6" target="elFiDxT0RZDuDSS1idMg-9">
          <mxGeometry relative="1" as="geometry" />
        </mxCell>
        <mxCell id="elFiDxT0RZDuDSS1idMg-6" value="Modeling quick design" style="rounded=1;whiteSpace=wrap;html=1;arcSize=14;strokeWidth=1;strokeColor=#535353;fillColor=#ECECEC;fontFamily=Ubuntu;fontSource=https%3A%2F%2Ffonts.googleapis.com%2Fcss%3Ffamily%3DUbuntu;" vertex="1" parent="1">
          <mxGeometry x="400" y="100" width="100" height="50" as="geometry" />
        </mxCell>
        <mxCell id="elFiDxT0RZDuDSS1idMg-13" value="" style="edgeStyle=orthogonalEdgeStyle;orthogonalLoop=1;jettySize=auto;html=1;strokeWidth=1.3;exitX=0.5;exitY=1;exitDx=0;exitDy=0;entryX=1;entryY=0.5;entryDx=0;entryDy=0;strokeColor=#535353;dashed=1;rounded=1;jumpStyle=line;" edge="1" parent="1" source="elFiDxT0RZDuDSS1idMg-9" target="elFiDxT0RZDuDSS1idMg-12">
          <mxGeometry relative="1" as="geometry" />
        </mxCell>
        <mxCell id="elFiDxT0RZDuDSS1idMg-9" value="Construction of prototype" style="rounded=1;whiteSpace=wrap;html=1;arcSize=14;strokeWidth=1;strokeColor=#535353;fillColor=#ECECEC;fontFamily=Ubuntu;" vertex="1" parent="1">
          <mxGeometry x="500" y="200" width="100" height="50" as="geometry" />
        </mxCell>
        <mxCell id="elFiDxT0RZDuDSS1idMg-14" style="edgeStyle=orthogonalEdgeStyle;orthogonalLoop=1;jettySize=auto;html=1;entryX=0.5;entryY=1;entryDx=0;entryDy=0;strokeWidth=1.3;exitX=0;exitY=0.5;exitDx=0;exitDy=0;strokeColor=#535353;dashed=1;rounded=1;" edge="1" parent="1" source="elFiDxT0RZDuDSS1idMg-12" target="elFiDxT0RZDuDSS1idMg-3">
          <mxGeometry relative="1" as="geometry" />
        </mxCell>
        <mxCell id="elFiDxT0RZDuDSS1idMg-12" value="Development Delivery &amp;amp; Feedback" style="rounded=1;whiteSpace=wrap;html=1;arcSize=14;strokeWidth=1;strokeColor=#535353;fillColor=#ECECEC;fontFamily=Ubuntu;" vertex="1" parent="1">
          <mxGeometry x="330" y="300" width="100" height="50" as="geometry" />
        </mxCell>
      </root>
    </mxGraphModel>
  </diagram>
</mxfile>
